<svg width="1392" height="212" viewBox="0 0 1392 212" fill="none" xmlns="http://www.w3.org/2000/svg">
<path d="M33.8755 118.757C50.8971 118.757 64.7002 104.974 64.7002 87.9607C64.7002 70.9413 50.8974 57.1531 33.8755 57.1531C16.8495 57.1531 3.05296 70.9422 3.05296 87.9607C3.05296 104.974 16.8506 118.757 33.8755 118.757Z" fill="white"/>
<path d="M33.8764 125.792C14.3293 125.792 0 143 0 160.783V172.751C0 174.446 1.38002 175.834 3.07749 175.834H64.6619C66.3652 175.834 67.7452 174.446 67.7452 172.751V160.783C67.7452 143.001 53.4185 125.792 33.8775 125.792" fill="white"/>
<path d="M114.004 112.419C132.914 112.419 148.251 97.0908 148.251 78.1888C148.251 59.2804 132.914 43.9542 114.004 43.9542C95.0859 43.9542 79.7548 59.2815 79.7548 78.1888C79.7548 97.0913 95.0851 112.419 114.004 112.419Z" fill="white"/>
<path d="M114.004 120.225C92.2865 120.225 76.3627 139.352 76.3627 159.109V172.408C76.3627 174.289 77.8968 175.833 79.783 175.833H148.216C150.109 175.833 151.641 174.289 151.641 172.408V159.109C151.641 139.352 135.72 120.225 114.004 120.225Z" fill="white"/>
<path d="M202.16 105.374C223.17 105.374 240.206 88.3475 240.206 67.3404C240.206 46.3391 223.171 29.3071 202.16 29.3071C181.138 29.3071 164.1 46.3385 164.1 67.3404C164.1 88.3467 181.139 105.374 202.16 105.374Z" fill="white"/>
<path d="M202.161 114.048C178.029 114.048 160.337 135.296 160.337 157.254V172.029C160.337 174.119 162.04 175.834 164.138 175.834H240.173C242.275 175.834 243.978 174.119 243.978 172.029V157.254C243.978 135.296 226.291 114.048 202.161 114.048Z" fill="white"/>
<path d="M703.641 46.1888H815.999V66.9249H771.428V176.015H749.14V66.9249H703.641V46.1888Z" fill="white"/>
<path d="M518.854 46.1888V66.9249H428.791V100.283H501.22V121.019H428.791V155.279H518.854V176.015H406.505V66.9249H406.496V46.1888H518.854Z" fill="white"/>
<path d="M574.958 46.2414H545.793L650.257 176.067H679.507L627.269 111.199L679.424 46.3404L650.257 46.3855L612.667 93.0661L574.958 46.2414Z" fill="white"/>
<path d="M604.888 138.977L590.282 120.819L545.711 176.166H574.96L604.888 138.977Z" fill="white"/>
<path fill-rule="evenodd" clip-rule="evenodd" d="M407.286 176.013L302.682 46.1332H274.824V175.959H297.11V73.8834L379.289 176.013H407.286Z" fill="white"/>
<path d="M895.22 171.352C886.508 171.352 878.921 169.474 872.462 165.719C866.153 161.813 861.271 157.382 857.816 152.424C854.511 147.317 852.859 143.186 852.859 140.031C852.859 137.027 853.91 134.548 856.013 132.596C858.116 130.492 860.595 129.441 863.449 129.441C866.003 129.441 868.106 130.117 869.758 131.469C871.561 132.821 872.838 134.624 873.589 136.877C875.241 141.534 877.945 145.214 881.701 147.918C885.456 150.622 890.113 151.974 895.671 151.974C901.529 151.974 906.111 150.547 909.416 147.693C912.721 144.838 914.373 141.609 914.373 138.003C914.373 134.548 912.946 131.844 910.092 129.892C907.388 127.789 901.83 125.46 893.418 122.906C881.1 119.151 872.237 114.72 866.829 109.612C861.421 104.354 858.717 97.5195 858.717 89.1073C858.717 80.2444 862.247 73.0339 869.307 67.4758C876.368 61.7675 886.207 58.9133 898.825 58.9133C910.542 58.9133 919.631 61.467 926.09 66.5745C932.7 71.6819 936.005 78.5169 936.005 87.0793C936.005 91.7361 935.028 95.3413 933.075 97.8951C931.122 100.299 928.343 101.5 924.738 101.5C921.584 101.5 919.03 100.524 917.077 98.571C915.124 96.6182 914.148 94.5151 914.148 92.2619C914.148 91.5108 914.298 90.6094 914.598 89.5579C915.049 88.3562 915.274 87.4549 915.274 86.854C915.274 84.15 913.922 81.9719 911.218 80.3195C908.665 78.6671 904.684 77.8409 899.276 77.8409C892.516 77.8409 887.484 78.8173 884.179 80.7701C881.025 82.723 879.447 85.3518 879.447 88.6566C879.447 92.1116 881.1 94.9658 884.404 97.2191C887.709 99.3221 893.643 101.726 902.205 104.43C914.673 108.335 923.311 112.616 928.118 117.273C933.075 121.93 935.554 128.465 935.554 136.877C935.554 142.585 933.826 148.143 930.371 153.551C927.067 158.809 922.335 163.09 916.176 166.395C910.167 169.7 903.182 171.352 895.22 171.352ZM969.309 211.235C966.455 211.235 963.901 210.108 961.648 207.855C959.545 205.752 958.493 203.273 958.493 200.419V69.7291C958.493 66.5745 959.545 63.9456 961.648 61.8426C963.751 59.7395 966.38 58.688 969.534 58.688C972.088 58.688 974.416 59.6644 976.52 61.6173C978.773 63.5701 979.899 66.1238 979.899 69.2784V71.757C987.561 63.0443 998.827 58.688 1013.7 58.688C1019.86 58.688 1025.79 60.6408 1031.5 64.5465C1037.36 68.4522 1042.17 74.3107 1045.92 82.1221C1049.68 89.7832 1051.55 99.0217 1051.55 109.837C1051.55 119.602 1050.05 128.99 1047.05 138.003C1044.04 147.017 1038.79 154.603 1031.27 160.762C1023.91 166.77 1014 169.775 1001.53 169.775C994.32 169.775 987.185 167.747 980.125 163.691V200.419C980.125 203.273 978.998 205.752 976.745 207.855C974.642 210.108 972.163 211.235 969.309 211.235ZM1002.88 149.045C1011.6 149.045 1018.43 145.815 1023.39 139.355C1028.5 132.746 1031.05 122.906 1031.05 109.837C1031.05 100.223 1029.17 92.7125 1025.42 87.3046C1021.81 81.7466 1017.3 78.9675 1011.9 78.9675C1004.23 78.9675 997.7 80.4697 992.293 83.4741C987.035 86.4784 982.979 89.8584 980.125 93.6138V143.637C989.288 147.242 996.874 149.045 1002.88 149.045ZM1148.1 173.605C1145.1 173.605 1142.62 172.779 1140.67 171.127C1138.86 169.474 1137.96 167.296 1137.96 164.592V161.438C1131.8 168.047 1123.24 171.352 1112.28 171.352C1104.01 171.352 1096.58 169.324 1089.97 165.268C1083.36 161.212 1078.18 155.504 1074.42 148.143C1070.67 140.632 1068.79 132.145 1068.79 122.681C1068.79 112.166 1071.04 102.026 1075.55 92.2619C1080.05 82.3474 1086.36 74.3107 1094.48 68.1518C1102.74 61.9928 1112.2 58.9133 1122.87 58.9133C1129.78 58.9133 1136.01 59.8897 1141.57 61.8426C1147.13 63.6452 1152.91 65.8985 1158.92 68.6024V162.339C1158.92 165.343 1157.87 167.972 1155.76 170.225C1153.66 172.479 1151.11 173.605 1148.1 173.605ZM1113.85 150.396C1118.21 150.396 1122.42 149.495 1126.47 147.693C1130.68 145.89 1134.13 143.712 1136.84 141.158L1137.51 82.3474C1133.16 80.5448 1128.42 79.6435 1123.32 79.6435C1116.86 79.6435 1111.15 81.6714 1106.19 85.7273C1101.24 89.633 1097.4 94.8907 1094.7 101.5C1092 107.96 1090.64 114.87 1090.64 122.23C1090.64 131.394 1092.67 138.379 1096.73 143.186C1100.78 147.993 1106.49 150.396 1113.85 150.396ZM1232.33 171.352C1223.32 171.352 1215.06 169.174 1207.55 164.817C1200.04 160.461 1194.1 154.527 1189.75 147.017C1185.39 139.355 1183.21 131.018 1183.21 122.005C1183.21 111.79 1185.62 101.801 1190.42 92.0365C1195.23 82.2723 1201.54 74.3107 1209.35 68.1518C1217.16 61.9928 1225.42 58.9133 1234.14 58.9133C1242.1 58.9133 1248.48 60.1902 1253.29 62.7439C1258.25 65.1474 1263.05 69.0531 1267.71 74.4609C1269.96 76.8644 1271.09 79.4933 1271.09 82.3474C1271.09 85.2016 1270.04 87.6802 1267.94 89.7833C1265.83 91.7361 1263.28 92.7125 1260.27 92.7125C1258.32 92.7125 1256.74 92.4121 1255.54 91.8112C1254.49 91.2103 1253.21 90.0086 1251.71 88.206C1249.16 85.3518 1246.6 83.1736 1244.05 81.6714C1241.65 80.1693 1238.42 79.4182 1234.36 79.4182C1229.7 79.4182 1224.97 81.4461 1220.17 85.502C1215.51 89.5579 1211.68 94.8907 1208.67 101.5C1205.82 107.96 1204.39 114.644 1204.39 121.554C1204.39 127.563 1205.67 132.821 1208.22 137.327C1210.93 141.684 1214.38 145.064 1218.59 147.467C1222.79 149.72 1227.23 150.847 1231.88 150.847C1237.89 150.847 1242.77 149.72 1246.53 147.467C1250.44 145.214 1253.89 142.134 1256.89 138.229C1259.75 134.473 1262.98 132.596 1266.58 132.596C1269.44 132.596 1271.92 133.647 1274.02 135.75C1276.12 137.703 1277.17 139.956 1277.17 142.51C1277.17 145.514 1276.35 148.068 1274.7 150.171C1270.34 156.03 1264.41 161.062 1256.89 165.268C1249.38 169.324 1241.2 171.352 1232.33 171.352ZM1344.94 171.352C1334.27 171.352 1324.66 169.099 1316.09 164.592C1307.68 159.935 1301.07 153.401 1296.27 144.989C1291.46 136.426 1289.05 126.361 1289.05 114.795C1289.05 105.331 1291.16 96.3178 1295.36 87.7553C1299.72 79.0426 1305.73 72.0575 1313.39 66.7998C1321.2 61.5421 1330.06 58.9133 1339.98 58.9133C1349.14 58.9133 1356.95 60.7911 1363.41 64.5465C1370.02 68.1518 1374.98 72.5081 1378.28 77.6155C1381.59 82.723 1383.24 87.3046 1383.24 91.3605C1383.24 93.3134 1382.64 95.1911 1381.44 96.9937C1380.24 98.7964 1378.51 100.374 1376.26 101.726L1315.87 136.426C1317.97 141.083 1321.65 144.688 1326.91 147.242C1332.32 149.796 1338.33 151.072 1344.94 151.072C1353.65 151.072 1361.08 147.843 1367.24 141.383C1369.65 138.98 1372.13 137.778 1374.68 137.778C1377.68 137.778 1380.16 138.755 1382.12 140.707C1384.22 142.66 1385.27 145.064 1385.27 147.918C1385.27 150.321 1384.37 152.575 1382.57 154.678C1378.36 159.334 1372.73 163.315 1365.67 166.62C1358.76 169.775 1351.85 171.352 1344.94 171.352ZM1360.93 88.6566C1359.13 85.502 1356.58 83.1736 1353.27 81.6714C1349.97 80.019 1346.06 79.1928 1341.56 79.1928C1332.99 79.1928 1325.78 82.1221 1319.92 87.9806C1314.22 93.8392 1310.91 101.05 1310.01 109.612C1309.71 111.865 1309.56 114.569 1309.56 117.724L1360.93 88.6566Z" fill="white"/>
</svg>
